<svg width="106" height="106" viewBox="0 0 106 106" fill="none" xmlns="http://www.w3.org/2000/svg">
<path d="M24.9552 31.4066C28.4686 31.4066 31.3167 28.5654 31.3167 25.0607C27.8033 25.0607 24.9552 27.9018 24.9552 31.4066Z" fill="#03C944"/>
<path d="M18.5938 25.0607C18.5938 21.5561 21.4419 18.7148 24.9552 18.7148C28.4686 18.7148 31.3167 21.5561 31.3167 25.0607C27.8041 25.0607 24.9565 22.2209 24.9552 18.7171C24.954 22.2209 22.1064 25.0607 18.5938 25.0607Z" fill="#03C944"/>
<path d="M18.5938 25.0607C18.5938 28.5654 21.4419 31.4066 24.9552 31.4066C24.9552 27.9018 22.1071 25.0607 18.5938 25.0607Z" fill="#03C944"/>
<path d="M6.3615 31.4066C9.87489 31.4066 12.723 28.5654 12.723 25.0607C9.2096 25.0607 6.3615 27.9018 6.3615 31.4066Z" fill="#F2F2F2"/>
<path d="M0 25.0607C0 21.5561 2.8481 18.7148 6.3615 18.7148C9.87489 18.7148 12.723 21.5561 12.723 25.0607C9.21039 25.0607 6.36274 22.2209 6.3615 18.7171C6.36025 22.2209 3.5126 25.0607 0 25.0607Z" fill="#F2F2F2"/>
<path d="M0 25.0607C0 28.5654 2.8481 31.4066 6.3615 31.4066C6.3615 27.9018 3.51339 25.0607 0 25.0607Z" fill="#F2F2F2"/>
<path d="M24.9552 12.6918C28.4686 12.6918 31.3167 9.85057 31.3167 6.3459C27.8033 6.3459 24.9552 9.18691 24.9552 12.6918Z" fill="#F2F2F2"/>
<path d="M18.5938 6.3459C18.5938 2.84123 21.4419 0 24.9552 0C28.4686 0 31.3167 2.84123 31.3167 6.3459C27.8041 6.3459 24.9565 3.50602 24.9552 0.00225352C24.954 3.50602 22.1064 6.3459 18.5938 6.3459Z" fill="#F2F2F2"/>
<path d="M18.5938 6.3459C18.5938 9.85057 21.4419 12.6918 24.9552 12.6918C24.9552 9.18691 22.1071 6.3459 18.5938 6.3459Z" fill="#F2F2F2"/>
<path d="M6.3615 12.6918C9.87489 12.6918 12.723 9.85057 12.723 6.3459C9.2096 6.3459 6.3615 9.18691 6.3615 12.6918Z" fill="#F2F2F2"/>
<path d="M0 6.3459C0 2.84123 2.8481 0 6.3615 0C9.87489 0 12.723 2.84123 12.723 6.3459C9.21039 6.3459 6.36274 3.50602 6.3615 0.00225352C6.36025 3.50602 3.5126 6.3459 0 6.3459Z" fill="#F2F2F2"/>
<path d="M0 6.3459C0 9.85057 2.8481 12.6918 6.3615 12.6918C6.3615 9.18691 3.51339 6.3459 0 6.3459Z" fill="#F2F2F2"/>
<path d="M43.6506 31.4066C47.164 31.4066 50.0121 28.5654 50.0121 25.0607C46.4987 25.0607 43.6506 27.9018 43.6506 31.4066Z" fill="#03C944"/>
<path d="M37.2891 25.0607C37.2891 21.5561 40.1372 18.7148 43.6506 18.7148C47.164 18.7148 50.0121 21.5561 50.0121 25.0607C46.4995 25.0607 43.6518 22.2209 43.6506 18.7171C43.6493 22.2209 40.8017 25.0607 37.2891 25.0607Z" fill="#03C944"/>
<path d="M37.2891 25.0607C37.2891 28.5654 40.1372 31.4066 43.6506 31.4066C43.6506 27.9018 40.8025 25.0607 37.2891 25.0607Z" fill="#03C944"/>
<path d="M43.6506 12.6918C47.164 12.6918 50.0121 9.85057 50.0121 6.3459C46.4987 6.3459 43.6506 9.18691 43.6506 12.6918Z" fill="#F2F2F2"/>
<path d="M37.2891 6.3459C37.2891 2.84123 40.1372 0 43.6506 0C47.164 0 50.0121 2.84123 50.0121 6.3459C46.4995 6.3459 43.6518 3.50602 43.6506 0.00225352C43.6493 3.50602 40.8017 6.3459 37.2891 6.3459Z" fill="#F2F2F2"/>
<path d="M37.2891 6.3459C37.2891 9.85057 40.1372 12.6918 43.6506 12.6918C43.6506 9.18691 40.8025 6.3459 37.2891 6.3459Z" fill="#F2F2F2"/>
<path d="M62.3615 31.4066C65.8749 31.4066 68.723 28.5654 68.723 25.0607C65.2096 25.0607 62.3615 27.9018 62.3615 31.4066Z" fill="#03C944"/>
<path d="M56 25.0607C56 21.5561 58.8481 18.7148 62.3615 18.7148C65.8749 18.7148 68.723 21.5561 68.723 25.0607C65.2104 25.0607 62.3627 22.2209 62.3615 18.7171C62.3603 22.2209 59.5126 25.0607 56 25.0607Z" fill="#03C944"/>
<path d="M56 25.0607C56 28.5654 58.8481 31.4066 62.3615 31.4066C62.3615 27.9018 59.5134 25.0607 56 25.0607Z" fill="#03C944"/>
<path d="M62.3615 12.6918C65.8749 12.6918 68.723 9.85057 68.723 6.3459C65.2096 6.3459 62.3615 9.18691 62.3615 12.6918Z" fill="#F2F2F2"/>
<path d="M56 6.3459C56 2.84123 58.8481 0 62.3615 0C65.8749 0 68.723 2.84123 68.723 6.3459C65.2104 6.3459 62.3627 3.50602 62.3615 0.00225352C62.3603 3.50602 59.5126 6.3459 56 6.3459Z" fill="#F2F2F2"/>
<path d="M56 6.3459C56 9.85057 58.8481 12.6918 62.3615 12.6918C62.3615 9.18691 59.5134 6.3459 56 6.3459Z" fill="#F2F2F2"/>
<path d="M81.0646 31.4066C84.578 31.4066 87.4261 28.5654 87.4261 25.0607C83.9127 25.0607 81.0646 27.9018 81.0646 31.4066Z" fill="#03C944"/>
<path d="M74.7031 25.0607C74.7031 21.5561 77.5512 18.7148 81.0646 18.7148C84.578 18.7148 87.4261 21.5561 87.4261 25.0607C83.9135 25.0607 81.0659 22.2209 81.0646 18.7171C81.0634 22.2209 78.2157 25.0607 74.7031 25.0607Z" fill="#03C944"/>
<path d="M74.7031 25.0607C74.7031 28.5654 77.5512 31.4066 81.0646 31.4066C81.0646 27.9018 78.2165 25.0607 74.7031 25.0607Z" fill="#03C944"/>
<path d="M99.6427 31.4066C103.156 31.4066 106.004 28.5654 106.004 25.0607C102.491 25.0607 99.6427 27.9018 99.6427 31.4066Z" fill="#F2F2F2"/>
<path d="M93.2812 25.0607C93.2812 21.5561 96.1294 18.7148 99.6427 18.7148C103.156 18.7148 106.004 21.5561 106.004 25.0607C102.492 25.0607 99.644 22.2209 99.6427 18.7171C99.6415 22.2209 96.7939 25.0607 93.2812 25.0607Z" fill="#F2F2F2"/>
<path d="M93.2812 25.0607C93.2812 28.5654 96.1294 31.4066 99.6427 31.4066C99.6427 27.9018 96.7946 25.0607 93.2812 25.0607Z" fill="#F2F2F2"/>
<path d="M81.0646 12.6918C84.578 12.6918 87.4261 9.85057 87.4261 6.3459C83.9127 6.3459 81.0646 9.18691 81.0646 12.6918Z" fill="#F2F2F2"/>
<path d="M74.7031 6.3459C74.7031 2.84123 77.5512 0 81.0646 0C84.578 0 87.4261 2.84123 87.4261 6.3459C83.9135 6.3459 81.0659 3.50602 81.0646 0.00225352C81.0634 3.50602 78.2157 6.3459 74.7031 6.3459Z" fill="#F2F2F2"/>
<path d="M74.7031 6.3459C74.7031 9.85057 77.5512 12.6918 81.0646 12.6918C81.0646 9.18691 78.2165 6.3459 74.7031 6.3459Z" fill="#F2F2F2"/>
<path d="M99.6427 12.6918C103.156 12.6918 106.004 9.85057 106.004 6.3459C102.491 6.3459 99.6427 9.18691 99.6427 12.6918Z" fill="#F2F2F2"/>
<path d="M93.2812 6.3459C93.2812 2.84123 96.1294 0 99.6427 0C103.156 0 106.004 2.84123 106.004 6.3459C102.492 6.3459 99.644 3.50602 99.6427 0.00225352C99.6415 3.50602 96.7939 6.3459 93.2812 6.3459Z" fill="#F2F2F2"/>
<path d="M93.2812 6.3459C93.2812 9.85057 96.1294 12.6918 99.6427 12.6918C99.6427 9.18691 96.7946 6.3459 93.2812 6.3459Z" fill="#F2F2F2"/>
<path d="M43.6506 50.0648C47.164 50.0648 50.0121 47.2236 50.0121 43.7189C46.4987 43.7189 43.6506 46.56 43.6506 50.0648Z" fill="#F2F2F2"/>
<path d="M37.2891 43.7189C37.2891 40.2143 40.1372 37.373 43.6506 37.373C47.164 37.373 50.0121 40.2143 50.0121 43.7189C46.4995 43.7189 43.6518 40.8791 43.6506 37.3753C43.6493 40.8791 40.8017 43.7189 37.2891 43.7189Z" fill="#F2F2F2"/>
<path d="M37.2891 43.7189C37.2891 47.2236 40.1372 50.0648 43.6506 50.0648C43.6506 46.56 40.8025 43.7189 37.2891 43.7189Z" fill="#F2F2F2"/>
<path d="M62.3615 50.0648C65.8749 50.0648 68.723 47.2236 68.723 43.7189C65.2096 43.7189 62.3615 46.56 62.3615 50.0648Z" fill="#03C944"/>
<path d="M56 43.7189C56 40.2143 58.8481 37.373 62.3615 37.373C65.8749 37.373 68.723 40.2143 68.723 43.7189C65.2104 43.7189 62.3627 40.8791 62.3615 37.3753C62.3603 40.8791 59.5126 43.7189 56 43.7189Z" fill="#03C944"/>
<path d="M56 43.7189C56 47.2236 58.8481 50.0648 62.3615 50.0648C62.3615 46.56 59.5134 43.7189 56 43.7189Z" fill="#03C944"/>
<path d="M81.0646 50.0648C84.578 50.0648 87.4261 47.2236 87.4261 43.7189C83.9127 43.7189 81.0646 46.56 81.0646 50.0648Z" fill="#03C944"/>
<path d="M74.7031 43.7189C74.7031 40.2143 77.5512 37.373 81.0646 37.373C84.578 37.373 87.4261 40.2143 87.4261 43.7189C83.9135 43.7189 81.0659 40.8791 81.0646 37.3753C81.0634 40.8791 78.2157 43.7189 74.7031 43.7189Z" fill="#03C944"/>
<path d="M74.7031 43.7189C74.7031 47.2236 77.5512 50.0648 81.0646 50.0648C81.0646 46.56 78.2165 43.7189 74.7031 43.7189Z" fill="#03C944"/>
<path d="M99.6427 50.0648C103.156 50.0648 106.004 47.2236 106.004 43.7189C102.491 43.7189 99.6427 46.56 99.6427 50.0648Z" fill="#F2F2F2"/>
<path d="M93.2812 43.7189C93.2812 40.2143 96.1294 37.373 99.6427 37.373C103.156 37.373 106.004 40.2143 106.004 43.7189C102.492 43.7189 99.644 40.8791 99.6427 37.3753C99.6415 40.8791 96.7939 43.7189 93.2812 43.7189Z" fill="#F2F2F2"/>
<path d="M93.2812 43.7189C93.2812 47.2236 96.1294 50.0648 99.6427 50.0648C99.6427 46.56 96.7946 43.7189 93.2812 43.7189Z" fill="#F2F2F2"/>
<path d="M43.6506 68.7231C47.164 68.7231 50.0121 65.8818 50.0121 62.3772C46.4987 62.3772 43.6506 65.2182 43.6506 68.7231Z" fill="#03C944"/>
<path d="M37.2891 62.3772C37.2891 58.8725 40.1372 56.0312 43.6506 56.0312C47.164 56.0312 50.0121 58.8725 50.0121 62.3772C46.4995 62.3772 43.6518 59.5373 43.6506 56.0335C43.6493 59.5373 40.8017 62.3772 37.2891 62.3772Z" fill="#03C944"/>
<path d="M37.2891 62.3772C37.2891 65.8818 40.1372 68.7231 43.6506 68.7231C43.6506 65.2182 40.8025 62.3772 37.2891 62.3772Z" fill="#03C944"/>
<path d="M24.9943 68.7231C28.5077 68.7231 31.3558 65.8818 31.3558 62.3772C27.8424 62.3772 24.9943 65.2182 24.9943 68.7231Z" fill="#F2F2F2"/>
<path d="M18.6328 62.3772C18.6328 58.8725 21.4809 56.0312 24.9943 56.0312C28.5077 56.0312 31.3558 58.8725 31.3558 62.3772C27.8432 62.3772 24.9956 59.5373 24.9943 56.0335C24.9931 59.5373 22.1454 62.3772 18.6328 62.3772Z" fill="#F2F2F2"/>
<path d="M18.6328 62.3772C18.6328 65.8818 21.4809 68.7231 24.9943 68.7231C24.9943 65.2182 22.1462 62.3772 18.6328 62.3772Z" fill="#F2F2F2"/>
<path d="M6.40056 68.7231C9.91395 68.7231 12.7621 65.8818 12.7621 62.3772C9.24866 62.3772 6.40056 65.2182 6.40056 68.7231Z" fill="#F2F2F2"/>
<path d="M0.0390625 62.3772C0.0390625 58.8725 2.88717 56.0312 6.40056 56.0312C9.91395 56.0312 12.7621 58.8725 12.7621 62.3772C9.24945 62.3772 6.4018 59.5373 6.40056 56.0335C6.39932 59.5373 3.55167 62.3772 0.0390625 62.3772Z" fill="#F2F2F2"/>
<path d="M0.0390625 62.3772C0.0390625 65.8818 2.88717 68.7231 6.40056 68.7231C6.40056 65.2182 3.55246 62.3772 0.0390625 62.3772Z" fill="#F2F2F2"/>
<path d="M24.9943 50.0746C28.5077 50.0746 31.3558 47.2334 31.3558 43.7287C27.8424 43.7287 24.9943 46.5697 24.9943 50.0746Z" fill="#F2F2F2"/>
<path d="M18.6328 43.7287C18.6328 40.224 21.4809 37.3828 24.9943 37.3828C28.5077 37.3828 31.3558 40.224 31.3558 43.7287C27.8432 43.7287 24.9956 40.8888 24.9943 37.3851C24.9931 40.8888 22.1454 43.7287 18.6328 43.7287Z" fill="#F2F2F2"/>
<path d="M18.6328 43.7287C18.6328 47.2334 21.4809 50.0746 24.9943 50.0746C24.9943 46.5697 22.1462 43.7287 18.6328 43.7287Z" fill="#F2F2F2"/>
<path d="M6.40056 50.0746C9.91395 50.0746 12.7621 47.2334 12.7621 43.7287C9.24866 43.7287 6.40056 46.5697 6.40056 50.0746Z" fill="#F2F2F2"/>
<path d="M0.0390625 43.7287C0.0390625 40.224 2.88717 37.3828 6.40056 37.3828C9.91395 37.3828 12.7621 40.224 12.7621 43.7287C9.24945 43.7287 6.4018 40.8888 6.40056 37.3851C6.39932 40.8888 3.55167 43.7287 0.0390625 43.7287Z" fill="#F2F2F2"/>
<path d="M0.0390625 43.7287C0.0390625 47.2334 2.88717 50.0746 6.40056 50.0746C6.40056 46.5697 3.55246 43.7287 0.0390625 43.7287Z" fill="#F2F2F2"/>
<path d="M62.3615 68.7231C65.8749 68.7231 68.723 65.8818 68.723 62.3772C65.2096 62.3772 62.3615 65.2182 62.3615 68.7231Z" fill="#F2F2F2"/>
<path d="M56 62.3772C56 58.8725 58.8481 56.0312 62.3615 56.0312C65.8749 56.0312 68.723 58.8725 68.723 62.3772C65.2104 62.3772 62.3627 59.5373 62.3615 56.0335C62.3603 59.5373 59.5126 62.3772 56 62.3772Z" fill="#F2F2F2"/>
<path d="M56 62.3772C56 65.8818 58.8481 68.7231 62.3615 68.7231C62.3615 65.2182 59.5134 62.3772 56 62.3772Z" fill="#F2F2F2"/>
<path d="M81.0646 68.7231C84.578 68.7231 87.4261 65.8818 87.4261 62.3772C83.9127 62.3772 81.0646 65.2182 81.0646 68.7231Z" fill="#03C944"/>
<path d="M74.7031 62.3772C74.7031 58.8725 77.5512 56.0312 81.0646 56.0312C84.578 56.0312 87.4261 58.8725 87.4261 62.3772C83.9135 62.3772 81.0659 59.5373 81.0646 56.0335C81.0634 59.5373 78.2157 62.3772 74.7031 62.3772Z" fill="#03C944"/>
<path d="M74.7031 62.3772C74.7031 65.8818 77.5512 68.7231 81.0646 68.7231C81.0646 65.2182 78.2165 62.3772 74.7031 62.3772Z" fill="#03C944"/>
<path d="M99.6427 68.7231C103.156 68.7231 106.004 65.8818 106.004 62.3772C102.491 62.3772 99.6427 65.2182 99.6427 68.7231Z" fill="#F2F2F2"/>
<path d="M93.2812 62.3772C93.2812 58.8725 96.1294 56.0312 99.6427 56.0312C103.156 56.0312 106.004 58.8725 106.004 62.3772C102.492 62.3772 99.644 59.5373 99.6427 56.0335C99.6415 59.5373 96.7939 62.3772 93.2812 62.3772Z" fill="#F2F2F2"/>
<path d="M93.2812 62.3772C93.2812 65.8818 96.1294 68.7231 99.6427 68.7231C99.6427 65.2182 96.7946 62.3772 93.2812 62.3772Z" fill="#F2F2F2"/>
<path d="M24.9552 87.3832C28.4686 87.3832 31.3167 84.542 31.3167 81.0373C27.8033 81.0373 24.9552 83.8783 24.9552 87.3832Z" fill="#03C944"/>
<path d="M18.5938 81.0373C18.5938 77.5326 21.4419 74.6914 24.9552 74.6914C28.4686 74.6914 31.3167 77.5326 31.3167 81.0373C27.8041 81.0373 24.9565 78.1974 24.9552 74.6937C24.954 78.1974 22.1064 81.0373 18.5938 81.0373Z" fill="#03C944"/>
<path d="M18.5938 81.0373C18.5938 84.542 21.4419 87.3832 24.9552 87.3832C24.9552 83.8783 22.1071 81.0373 18.5938 81.0373Z" fill="#03C944"/>
<path d="M24.9552 105.996C28.4686 105.996 31.3167 103.155 31.3167 99.6506C27.8033 99.6506 24.9552 102.492 24.9552 105.996Z" fill="#F2F2F2"/>
<path d="M18.5938 99.6506C18.5938 96.1459 21.4419 93.3047 24.9552 93.3047C28.4686 93.3047 31.3167 96.1459 31.3167 99.6506C27.8041 99.6506 24.9565 96.8107 24.9552 93.3069C24.954 96.8107 22.1064 99.6506 18.5938 99.6506Z" fill="#F2F2F2"/>
<path d="M18.5938 99.6506C18.5938 103.155 21.4419 105.996 24.9552 105.996C24.9552 102.492 22.1071 99.6506 18.5938 99.6506Z" fill="#F2F2F2"/>
<path d="M6.3615 87.3832C9.87489 87.3832 12.723 84.542 12.723 81.0373C9.2096 81.0373 6.3615 83.8783 6.3615 87.3832Z" fill="#F2F2F2"/>
<path d="M0 81.0373C0 77.5326 2.8481 74.6914 6.3615 74.6914C9.87489 74.6914 12.723 77.5326 12.723 81.0373C9.21039 81.0373 6.36274 78.1974 6.3615 74.6937C6.36025 78.1974 3.5126 81.0373 0 81.0373Z" fill="#F2F2F2"/>
<path d="M0 81.0373C0 84.542 2.8481 87.3832 6.3615 87.3832C6.3615 83.8783 3.51339 81.0373 0 81.0373Z" fill="#F2F2F2"/>
<path d="M6.3615 105.997C9.87489 105.997 12.723 103.156 12.723 99.6508C9.2096 99.6508 6.3615 102.492 6.3615 105.997Z" fill="#F2F2F2"/>
<path d="M0 99.6508C0 96.1462 2.8481 93.3049 6.3615 93.3049C9.87489 93.3049 12.723 96.1462 12.723 99.6508C9.21039 99.6508 6.36274 96.811 6.3615 93.3072C6.36025 96.811 3.5126 99.6508 0 99.6508Z" fill="#F2F2F2"/>
<path d="M0 99.6508C0 103.156 2.8481 105.997 6.3615 105.997C6.3615 102.492 3.51339 99.6508 0 99.6508Z" fill="#F2F2F2"/>
<path d="M43.4396 87.3832C46.953 87.3832 49.8011 84.542 49.8011 81.0373C46.2877 81.0373 43.4396 83.8783 43.4396 87.3832Z" fill="#F2F2F2"/>
<path d="M37.0781 81.0373C37.0781 77.5326 39.9262 74.6914 43.4396 74.6914C46.953 74.6914 49.8011 77.5326 49.8011 81.0373C46.2885 81.0373 43.4409 78.1974 43.4396 74.6937C43.4384 78.1974 40.5907 81.0373 37.0781 81.0373Z" fill="#F2F2F2"/>
<path d="M37.0781 81.0373C37.0781 84.542 39.9262 87.3832 43.4396 87.3832C43.4396 83.8783 40.5915 81.0373 37.0781 81.0373Z" fill="#F2F2F2"/>
<path d="M43.4396 105.997C46.953 105.997 49.8011 103.156 49.8011 99.6508C46.2877 99.6508 43.4396 102.492 43.4396 105.997Z" fill="#F2F2F2"/>
<path d="M37.0781 99.6508C37.0781 96.1462 39.9262 93.3049 43.4396 93.3049C46.953 93.3049 49.8011 96.1462 49.8011 99.6508C46.2885 99.6508 43.4409 96.811 43.4396 93.3072C43.4384 96.811 40.5907 99.6508 37.0781 99.6508Z" fill="#F2F2F2"/>
<path d="M37.0781 99.6508C37.0781 103.156 39.9262 105.997 43.4396 105.997C43.4396 102.492 40.5915 99.6508 37.0781 99.6508Z" fill="#F2F2F2"/>
<path d="M62.3849 87.3832C65.8983 87.3832 68.7464 84.542 68.7464 81.0373C65.233 81.0373 62.3849 83.8783 62.3849 87.3832Z" fill="#F2F2F2"/>
<path d="M56.0234 81.0373C56.0234 77.5326 58.8715 74.6914 62.3849 74.6914C65.8983 74.6914 68.7464 77.5326 68.7464 81.0373C65.2338 81.0373 62.3862 78.1974 62.3849 74.6937C62.3837 78.1974 59.536 81.0373 56.0234 81.0373Z" fill="#F2F2F2"/>
<path d="M56.0234 81.0373C56.0234 84.542 58.8715 87.3832 62.3849 87.3832C62.3849 83.8783 59.5368 81.0373 56.0234 81.0373Z" fill="#F2F2F2"/>
<path d="M62.3849 105.996C65.8983 105.996 68.7464 103.155 68.7464 99.6506C65.233 99.6506 62.3849 102.492 62.3849 105.996Z" fill="#F2F2F2"/>
<path d="M56.0234 99.6506C56.0234 96.1459 58.8715 93.3047 62.3849 93.3047C65.8983 93.3047 68.7464 96.1459 68.7464 99.6506C65.2338 99.6506 62.3862 96.8107 62.3849 93.3069C62.3837 96.8107 59.536 99.6506 56.0234 99.6506Z" fill="#F2F2F2"/>
<path d="M56.0234 99.6506C56.0234 103.155 58.8715 105.996 62.3849 105.996C62.3849 102.492 59.5368 99.6506 56.0234 99.6506Z" fill="#F2F2F2"/>
<path d="M81.0646 87.3832C84.578 87.3832 87.4261 84.542 87.4261 81.0373C83.9127 81.0373 81.0646 83.8783 81.0646 87.3832Z" fill="#03C944"/>
<path d="M74.7031 81.0373C74.7031 77.5326 77.5512 74.6914 81.0646 74.6914C84.578 74.6914 87.4261 77.5326 87.4261 81.0373C83.9135 81.0373 81.0659 78.1974 81.0646 74.6937C81.0634 78.1974 78.2157 81.0373 74.7031 81.0373Z" fill="#03C944"/>
<path d="M74.7031 81.0373C74.7031 84.542 77.5512 87.3832 81.0646 87.3832C81.0646 83.8783 78.2165 81.0373 74.7031 81.0373Z" fill="#03C944"/>
<path d="M81.0646 105.996C84.578 105.996 87.4261 103.155 87.4261 99.6506C83.9127 99.6506 81.0646 102.492 81.0646 105.996Z" fill="#F2F2F2"/>
<path d="M74.7031 99.6506C74.7031 96.1459 77.5512 93.3047 81.0646 93.3047C84.578 93.3047 87.4261 96.1459 87.4261 99.6506C83.9135 99.6506 81.0659 96.8107 81.0646 93.3069C81.0634 96.8107 78.2157 99.6506 74.7031 99.6506Z" fill="#F2F2F2"/>
<path d="M74.7031 99.6506C74.7031 103.155 77.5512 105.996 81.0646 105.996C81.0646 102.492 78.2165 99.6506 74.7031 99.6506Z" fill="#F2F2F2"/>
<path d="M99.6427 87.3832C103.156 87.3832 106.004 84.542 106.004 81.0373C102.491 81.0373 99.6427 83.8783 99.6427 87.3832Z" fill="#F2F2F2"/>
<path d="M93.2812 81.0373C93.2812 77.5326 96.1294 74.6914 99.6427 74.6914C103.156 74.6914 106.004 77.5326 106.004 81.0373C102.492 81.0373 99.644 78.1974 99.6427 74.6937C99.6415 78.1974 96.7939 81.0373 93.2812 81.0373Z" fill="#F2F2F2"/>
<path d="M93.2812 81.0373C93.2812 84.542 96.1294 87.3832 99.6427 87.3832C99.6427 83.8783 96.7946 81.0373 93.2812 81.0373Z" fill="#F2F2F2"/>
<path d="M99.6427 105.996C103.156 105.996 106.004 103.155 106.004 99.6506C102.491 99.6506 99.6427 102.492 99.6427 105.996Z" fill="#F2F2F2"/>
<path d="M93.2812 99.6506C93.2812 96.1459 96.1294 93.3047 99.6427 93.3047C103.156 93.3047 106.004 96.1459 106.004 99.6506C102.492 99.6506 99.644 96.8107 99.6427 93.3069C99.6415 96.8107 96.7939 99.6506 93.2812 99.6506Z" fill="#F2F2F2"/>
<path d="M93.2812 99.6506C93.2812 103.155 96.1294 105.996 99.6427 105.996C99.6427 102.492 96.7946 99.6506 93.2812 99.6506Z" fill="#F2F2F2"/>
</svg>
