<svg width="94" height="24" viewBox="0 0 94 24" fill="none" xmlns="http://www.w3.org/2000/svg">
<path d="M75.6302 10.8988C75.4671 10.438 75.27 10.0016 75.0361 9.59103C75.0089 9.54209 74.9818 9.4945 74.9532 9.44692C74.7072 9.035 74.4271 8.65164 74.1103 8.29002C73.3164 7.3887 72.3648 6.74567 71.2541 6.35958C71.2147 6.34734 71.1753 6.33375 71.1372 6.32151C71.0651 6.29704 70.9931 6.27529 70.9197 6.2549C70.9129 6.25218 70.9061 6.24946 70.8993 6.2481C70.8191 6.22499 70.7389 6.20324 70.6573 6.18285C70.2386 6.07545 69.7995 6.0034 69.3386 5.96397C69.3345 5.96397 69.3305 5.96261 69.3264 5.96261C69.2598 5.95718 69.1945 5.9531 69.1279 5.94902C69.1062 5.94766 69.0844 5.9463 69.0626 5.94494C69.0178 5.94222 68.9729 5.9395 68.9267 5.93814C68.8927 5.93679 68.8574 5.93407 68.822 5.93407C68.788 5.93271 68.7527 5.93135 68.7173 5.93135C68.7024 5.92999 68.6861 5.92999 68.6711 5.92999H68.6371C68.6099 5.92863 68.5828 5.92863 68.5556 5.92863H68.5175C68.5012 5.92863 68.4862 5.92863 68.4699 5.92999C68.459 5.92863 68.4468 5.92863 68.4359 5.92999C68.4033 5.92863 68.3693 5.92863 68.3353 5.92863C68.2959 5.92863 68.2565 5.92863 68.2171 5.92999H68.1831C68.1668 5.93135 68.1504 5.93135 68.1355 5.93135C67.9819 5.93271 67.831 5.9395 67.6801 5.95038C66.6836 6.01291 65.7428 6.23179 64.8578 6.60564C64.4799 6.7647 64.121 6.94958 63.7811 7.15758C63.7512 7.17526 63.7227 7.19429 63.6941 7.21197C63.1028 7.59262 62.5671 8.04939 62.0886 8.5823C61.345 9.39255 60.7754 10.3387 60.3825 11.4236C60.1976 11.9307 60.0562 12.4541 59.9583 12.9924C59.9542 13.0128 59.9502 13.0332 59.9474 13.0522C59.9379 13.1107 59.9284 13.1678 59.9189 13.2262C59.8754 13.5158 59.8428 13.8122 59.8224 14.1126C59.8183 14.1724 59.8142 14.2336 59.8101 14.2948C59.806 14.36 59.8033 14.4253 59.8006 14.4905C59.7952 14.6224 59.7925 14.7543 59.7911 14.8875V14.9419C59.7911 15.0071 59.7911 15.0724 59.7938 15.1376C59.8169 16.334 60.0127 17.4433 60.3825 18.4656C60.7754 19.5613 61.345 20.513 62.0886 21.3232C62.8553 22.1552 63.7757 22.7901 64.8469 23.2278C65.9196 23.6656 67.0901 23.8844 68.3612 23.8844C69.567 23.8844 70.6763 23.6819 71.6837 23.2768C72.1582 23.0864 72.6095 22.8512 73.0391 22.5712C73.8507 22.0437 74.5277 21.398 75.0715 20.6326L71.8903 18.1108C71.6212 18.6682 71.2378 19.1154 70.7402 19.4512C70.0958 19.8903 69.3128 20.1078 68.3924 20.1078C67.2559 20.1078 66.307 19.7367 65.5539 18.9917C64.7966 18.2481 64.3453 17.219 64.1903 15.9044H76.1903C76.1903 15.9044 76.1903 15.6515 76.1903 15.5672V14.4797C76.1903 13.1542 76.0027 11.9606 75.6302 10.8988ZM64.3548 12.7858C64.6172 11.7567 65.0821 10.9695 65.751 10.4217C66.4171 9.8738 67.2219 9.60054 68.1627 9.60054C69.1714 9.60054 69.9762 9.89011 70.5771 10.4706C71.1793 11.0511 71.492 11.8233 71.5124 12.7858H64.3548Z" fill="#222222"/>
<path d="M20.4563 4.16404H13.1913V23.5391H8.44409V4.16404H1.14648V0H20.4563V4.16404Z" fill="#222222"/>
<path d="M48.9589 6.20052V23.1843H44.4387V21.4401C43.8568 22.1294 43.1798 22.6514 42.4049 23.0062C41.63 23.3611 40.779 23.5391 39.8545 23.5391C38.1103 23.5391 36.7115 22.9845 35.6565 21.8765C34.6016 20.7672 34.0741 19.2881 34.0741 17.4365V6.19916H38.5943V16.4346C38.5943 17.446 38.8254 18.2155 39.289 18.7429C39.7512 19.2704 40.4242 19.5342 41.3078 19.5342C42.1915 19.5342 42.9337 19.2215 43.536 18.5975C44.1382 17.9735 44.44 17.166 44.44 16.1763V6.19916L48.9589 6.20052Z" fill="#222222"/>
<path d="M57.1062 0.00136079V23.5405H52.5859V0.00136079H57.1062Z" fill="#222222"/>
<path d="M80.6154 23.1068C79.1512 22.5127 78.0446 21.7079 77.2956 20.6951L80.1695 17.7546C80.7636 18.5472 81.5398 19.1861 82.4982 19.6701C83.4567 20.1541 84.4314 20.3974 85.4225 20.3974C86.3251 20.3974 87.0361 20.2384 87.5527 19.9189C88.0707 19.5994 88.329 19.1644 88.329 18.6138C88.329 18.2168 88.208 17.9042 87.966 17.6717C87.724 17.4406 87.2944 17.2475 86.6772 17.0939C86.5236 17.0504 86.336 17.0056 86.1158 16.962C85.8955 16.9185 85.2784 16.7976 84.2655 16.5991C83.1426 16.3788 82.2889 16.164 81.7057 15.9547C81.1225 15.7453 80.6208 15.5088 80.2021 15.2437C79.5849 14.8467 79.1227 14.3464 78.8141 13.7401C78.5055 13.1338 78.3519 12.4133 78.3519 11.5758C78.3519 9.90234 79.0126 8.54288 80.334 7.49609C81.6554 6.4493 83.3615 5.92727 85.4537 5.92727C86.9287 5.92727 88.3167 6.20324 89.6164 6.75247C90.9161 7.30305 91.918 8.03036 92.6222 8.93304L89.9794 11.8396C89.4071 11.0905 88.7137 10.5182 87.898 10.1212C87.0837 9.72426 86.2245 9.52713 85.3219 9.52713C84.5945 9.52713 84.0113 9.66987 83.5709 9.95672C83.1304 10.2436 82.9102 10.6283 82.9102 11.1136C82.9102 11.444 83.0094 11.7077 83.2079 11.9062C83.4064 12.1047 83.7367 12.2692 84.1989 12.4024C84.3757 12.469 84.5782 12.5288 84.8107 12.5846C85.0418 12.6403 85.5095 12.7328 86.215 12.866C87.5582 13.1528 88.5275 13.3948 89.1216 13.5933C89.7156 13.7918 90.2336 14.012 90.6741 14.254C91.4014 14.6727 91.9465 15.2015 92.3095 15.8391C92.6725 16.4781 92.8546 17.238 92.8546 18.119C92.8546 19.8591 92.145 21.2743 90.7244 22.3646C89.3037 23.4549 87.5038 24 85.3232 24C83.6484 23.9986 82.0795 23.7009 80.6154 23.1068Z" fill="#222222"/>
<path d="M48.9589 0.00136079H31.744V3.67192H48.9589V0.00136079Z" fill="#04EC50"/>
<path d="M28.5234 17.7886L31.8269 20.3634C26.6065 27.0153 16.7491 23.1544 16.7491 14.6632C16.7491 4.62082 28.5193 4.08383 31.8799 9.4646L28.5234 12.0802C26.0233 7.72312 21.2339 9.98799 21.2339 14.8753C21.2339 19.9801 25.9839 21.8779 28.5193 17.7859L28.5234 17.7886Z" fill="#222222"/>
<path d="M31.8296 20.3594L31.8269 20.3634C31.8269 20.3634 28.522 17.7859 28.5193 17.7859C28.5193 17.7832 28.5207 17.7818 28.5207 17.7818L31.8296 20.3594Z" fill="#222222"/>
</svg>
