<svg width="151" height="40" viewBox="0 0 151 40" fill="none" xmlns="http://www.w3.org/2000/svg">
<path d="M122.071 18.165C121.803 17.3969 121.48 16.6696 121.097 15.9853C121.053 15.9038 121.008 15.8244 120.961 15.7451C120.558 15.0586 120.099 14.4197 119.58 13.817C118.279 12.3148 116.719 11.2431 114.899 10.5996C114.834 10.5792 114.77 10.5565 114.707 10.5362C114.589 10.4954 114.471 10.4591 114.351 10.4251C114.34 10.4206 114.328 10.4161 114.317 10.4138C114.186 10.3753 114.054 10.339 113.921 10.305C113.234 10.1261 112.515 10.006 111.76 9.94026C111.753 9.94026 111.746 9.93799 111.739 9.93799C111.63 9.92893 111.523 9.92213 111.414 9.91534C111.379 9.91307 111.343 9.9108 111.307 9.90854C111.234 9.90401 111.16 9.89948 111.084 9.89721C111.029 9.89494 110.971 9.89041 110.913 9.89041C110.857 9.88815 110.799 9.88588 110.741 9.88588C110.717 9.88361 110.69 9.88362 110.666 9.88362H110.61C110.565 9.88135 110.521 9.88135 110.476 9.88135H110.414C110.387 9.88135 110.363 9.88135 110.336 9.88362C110.318 9.88135 110.298 9.88135 110.28 9.88362C110.227 9.88135 110.171 9.88135 110.115 9.88135C110.051 9.88135 109.986 9.88135 109.921 9.88362H109.866C109.839 9.88588 109.812 9.88588 109.788 9.88588C109.536 9.88815 109.289 9.89947 109.041 9.9176C107.408 10.0218 105.866 10.3866 104.416 11.0097C103.797 11.2748 103.208 11.5829 102.651 11.9296C102.602 11.9591 102.556 11.9908 102.509 12.0202C101.54 12.6546 100.662 13.4159 99.8776 14.3041C98.6589 15.6545 97.7254 17.2315 97.0815 19.0396C96.7785 19.8847 96.5468 20.757 96.3863 21.6543C96.3797 21.6882 96.373 21.7222 96.3685 21.754C96.3529 21.8514 96.3373 21.9465 96.3217 22.044C96.2504 22.5266 96.197 23.0205 96.1635 23.5212C96.1569 23.6209 96.1502 23.7229 96.1435 23.8249C96.1368 23.9336 96.1323 24.0424 96.1279 24.1511C96.119 24.3709 96.1145 24.5907 96.1123 24.8127V24.9034C96.1123 25.0121 96.1123 25.1209 96.1168 25.2296C96.1546 27.2235 96.4755 29.0724 97.0815 30.7762C97.7254 32.6024 98.6589 34.1885 99.8776 35.5389C101.134 36.9255 102.643 37.9836 104.398 38.7132C106.156 39.4428 108.074 39.8076 110.158 39.8076C112.134 39.8076 113.952 39.47 115.603 38.7948C116.38 38.4776 117.12 38.0856 117.824 37.6188C119.154 36.7397 120.264 35.6635 121.155 34.3879L115.942 30.1849C115.5 31.1138 114.872 31.8593 114.057 32.4189C113.001 33.1507 111.717 33.5133 110.209 33.5133C108.346 33.5133 106.791 32.8947 105.557 31.6531C104.316 30.4137 103.576 28.6985 103.322 26.5075H122.989C122.989 26.5075 122.989 26.0861 122.989 25.9456V24.133C122.989 21.9239 122.681 19.9345 122.071 18.165ZM103.592 21.3099C104.022 19.5947 104.784 18.2828 105.88 17.3697C106.972 16.4566 108.291 16.0012 109.832 16.0012C111.486 16.0012 112.804 16.4838 113.789 17.4513C114.776 18.4187 115.289 19.7057 115.322 21.3099H103.592Z" fill="black"/>
<path d="M31.6465 6.94004H19.7401V39.2317H11.9599V6.94004H0V0H31.6465V6.94004Z" fill="black"/>
<path d="M78.3573 10.3348V38.641H70.9492V35.734C69.9956 36.8827 68.886 37.7528 67.6161 38.3442C66.3461 38.9355 64.9514 39.2323 63.4364 39.2323C60.5778 39.2323 58.2852 38.3079 56.5563 36.4613C54.8274 34.6124 53.9629 32.1473 53.9629 29.0613V10.3325H61.371V27.3915C61.371 29.0772 61.7498 30.3596 62.5095 31.2387C63.267 32.1178 64.3699 32.5574 65.8181 32.5574C67.2663 32.5574 68.4828 32.0363 69.4698 30.9963C70.4568 29.9563 70.9514 28.6104 70.9514 26.961V10.3325L78.3573 10.3348Z" fill="black"/>
<path d="M91.7099 0.00292969V39.2346H84.3018V0.00292969H91.7099Z" fill="black"/>
<path d="M130.241 38.5119C127.841 37.5217 126.027 36.1804 124.8 34.4924L129.51 29.5915C130.483 30.9125 131.756 31.9774 133.326 32.784C134.897 33.5906 136.495 33.9962 138.119 33.9962C139.598 33.9962 140.763 33.7311 141.61 33.1986C142.459 32.6662 142.882 31.9411 142.882 31.0235C142.882 30.3619 142.684 29.8408 142.287 29.4533C141.891 29.0681 141.187 28.7464 140.175 28.4904C139.923 28.4179 139.616 28.3431 139.255 28.2706C138.894 28.1981 137.883 27.9964 136.223 27.6656C134.382 27.2986 132.983 26.9406 132.027 26.5917C131.072 26.2427 130.249 25.8485 129.563 25.4067C128.552 24.7451 127.794 23.9113 127.288 22.9007C126.783 21.8902 126.531 20.6894 126.531 19.2936C126.531 16.5045 127.614 14.2387 129.779 12.4941C131.945 10.7494 134.741 9.87939 138.17 9.87939C140.587 9.87939 142.862 10.3393 144.992 11.2547C147.122 12.1723 148.764 13.3845 149.918 14.889L145.587 19.7332C144.649 18.4848 143.513 17.5309 142.176 16.8693C140.841 16.2077 139.433 15.8791 137.954 15.8791C136.762 15.8791 135.806 16.117 135.084 16.5951C134.362 17.0732 134.001 17.7144 134.001 18.5233C134.001 19.0739 134.164 19.5134 134.489 19.8442C134.815 20.175 135.356 20.4492 136.114 20.6712C136.403 20.7823 136.735 20.8819 137.116 20.9748C137.495 21.0677 138.261 21.2218 139.418 21.4439C141.619 21.9219 143.208 22.3252 144.181 22.656C145.155 22.9868 146.004 23.3539 146.726 23.7572C147.918 24.4551 148.811 25.3364 149.406 26.3991C150.001 27.464 150.299 28.7305 150.299 30.1988C150.299 33.0989 149.136 35.4576 146.808 37.2747C144.48 39.0919 141.53 40.0005 137.956 40.0005C135.211 39.9982 132.64 39.502 130.241 38.5119Z" fill="black"/>
<path d="M78.3587 0.00292969H50.1455V6.12049H78.3587V0.00292969Z" fill="black"/>
<path d="M44.8661 29.6477L50.2801 33.939C41.7246 45.0254 25.5693 38.5907 25.5693 24.4387C25.5693 7.7015 44.8594 6.80652 50.367 15.7744L44.8661 20.1337C40.7688 12.872 32.9195 16.6467 32.9195 24.7922C32.9195 33.3001 40.7042 36.4631 44.8594 29.6432L44.8661 29.6477Z" fill="black"/>
<path d="M50.2855 33.9311C50.2833 33.9334 50.2833 33.9357 50.2811 33.9379C50.2788 33.9379 44.8648 29.6421 44.8604 29.6421C44.8604 29.6375 44.8626 29.6353 44.8626 29.6353L50.2855 33.9311Z" fill="black"/>
</svg>
