<svg width="38" height="28" viewBox="0 0 38 28" fill="none" xmlns="http://www.w3.org/2000/svg">
<path d="M8.34151 28C5.83227 28 3.79776 27.1111 2.23797 25.3333C0.745988 23.4872 0 21.094 0 18.1538C0 14.3248 1.11898 10.7692 3.35695 7.48718C5.59491 4.13675 8.37542 1.64103 11.6985 0L12.3088 1.23077C10.8846 2.32479 9.63003 3.72649 8.54496 5.43589C7.45988 7.1453 6.67999 9.26495 6.20527 11.7949L8.34151 12.3077C10.7151 12.8547 12.5462 13.8803 13.8347 15.3846C15.191 16.8205 15.8692 18.5641 15.8692 20.6154C15.8692 22.8034 15.1232 24.5812 13.6312 25.9487C12.2071 27.3162 10.4438 28 8.34151 28ZM29.8056 28C27.2964 28 25.2619 27.1111 23.7021 25.3333C22.2101 23.4872 21.4641 21.094 21.4641 18.1538C21.4641 14.3248 22.5831 10.7692 24.8211 7.48718C27.059 4.13675 29.8395 1.64103 33.1626 0L33.7729 1.23077C32.3488 2.32479 31.0942 3.72649 30.0091 5.43589C28.924 7.1453 28.1441 9.26495 27.6694 11.7949L29.8056 12.3077C32.1792 12.8547 34.0103 13.8803 35.2988 15.3846C36.6552 16.8205 37.3333 18.5641 37.3333 20.6154C37.3333 22.8034 36.5873 24.5812 35.0954 25.9487C33.6712 27.3162 31.908 28 29.8056 28Z" fill="black"/>
</svg>
