<svg width="106" height="106" viewBox="0 0 106 106" fill="none" xmlns="http://www.w3.org/2000/svg">
<path d="M24.9535 31.4066C28.4669 31.4066 31.315 28.5654 31.315 25.0607C27.8016 25.0607 24.9535 27.9018 24.9535 31.4066Z" fill="#03C944"/>
<path d="M18.592 25.0607C18.592 21.5561 21.4401 18.7148 24.9535 18.7148C28.4669 18.7148 31.315 21.5561 31.315 25.0607C27.8024 25.0607 24.9547 22.2209 24.9535 18.7171C24.9522 22.2209 22.1046 25.0607 18.592 25.0607Z" fill="#03C944"/>
<path d="M18.592 25.0607C18.592 28.5654 21.4401 31.4066 24.9535 31.4066C24.9535 27.9018 22.1054 25.0607 18.592 25.0607Z" fill="#03C944"/>
<path d="M6.36168 31.4066C9.87507 31.4066 12.7232 28.5654 12.7232 25.0607C9.20978 25.0607 6.36168 27.9018 6.36168 31.4066Z" fill="#F2F2F2"/>
<path d="M0.000183105 25.0607C0.000183105 21.5561 2.84829 18.7148 6.36168 18.7148C9.87507 18.7148 12.7232 21.5561 12.7232 25.0607C9.21057 25.0607 6.36292 22.2209 6.36168 18.7171C6.36044 22.2209 3.51279 25.0607 0.000183105 25.0607Z" fill="#F2F2F2"/>
<path d="M0.000183105 25.0607C0.000183105 28.5654 2.84829 31.4066 6.36168 31.4066C6.36168 27.9018 3.51358 25.0607 0.000183105 25.0607Z" fill="#F2F2F2"/>
<path d="M24.9535 12.6918C28.4669 12.6918 31.315 9.85057 31.315 6.3459C27.8016 6.3459 24.9535 9.18691 24.9535 12.6918Z" fill="#F2F2F2"/>
<path d="M18.592 6.3459C18.592 2.84123 21.4401 0 24.9535 0C28.4669 0 31.315 2.84123 31.315 6.3459C27.8024 6.3459 24.9547 3.50602 24.9535 0.00225352C24.9522 3.50602 22.1046 6.3459 18.592 6.3459Z" fill="#F2F2F2"/>
<path d="M18.592 6.3459C18.592 9.85057 21.4401 12.6918 24.9535 12.6918C24.9535 9.18691 22.1054 6.3459 18.592 6.3459Z" fill="#F2F2F2"/>
<path d="M6.3615 12.6918C9.87489 12.6918 12.723 9.85057 12.723 6.3459C9.2096 6.3459 6.3615 9.18691 6.3615 12.6918Z" fill="#F2F2F2"/>
<path d="M0 6.3459C0 2.84123 2.8481 0 6.3615 0C9.87489 0 12.723 2.84123 12.723 6.3459C9.21039 6.3459 6.36274 3.50602 6.3615 0.00225352C6.36025 3.50602 3.5126 6.3459 0 6.3459Z" fill="#F2F2F2"/>
<path d="M0 6.3459C0 9.85057 2.8481 12.6918 6.3615 12.6918C6.3615 9.18691 3.51339 6.3459 0 6.3459Z" fill="#F2F2F2"/>
<path d="M43.6507 31.4066C47.1641 31.4066 50.0122 28.5654 50.0122 25.0607C46.4988 25.0607 43.6507 27.9018 43.6507 31.4066Z" fill="#03C944"/>
<path d="M37.2892 25.0607C37.2892 21.5561 40.1373 18.7148 43.6507 18.7148C47.1641 18.7148 50.0122 21.5561 50.0122 25.0607C46.4996 25.0607 43.652 22.2209 43.6507 18.7171C43.6495 22.2209 40.8018 25.0607 37.2892 25.0607Z" fill="#03C944"/>
<path d="M37.2892 25.0607C37.2892 28.5654 40.1373 31.4066 43.6507 31.4066C43.6507 27.9018 40.8026 25.0607 37.2892 25.0607Z" fill="#03C944"/>
<path d="M43.651 12.6918C47.1644 12.6918 50.0125 9.85057 50.0125 6.3459C46.4991 6.3459 43.651 9.18691 43.651 12.6918Z" fill="#F2F2F2"/>
<path d="M37.2895 6.3459C37.2895 2.84123 40.1376 0 43.651 0C47.1644 0 50.0125 2.84123 50.0125 6.3459C46.4999 6.3459 43.6522 3.50602 43.651 0.00225352C43.6497 3.50602 40.8021 6.3459 37.2895 6.3459Z" fill="#F2F2F2"/>
<path d="M37.2895 6.3459C37.2895 9.85057 40.1376 12.6918 43.651 12.6918C43.651 9.18691 40.8029 6.3459 37.2895 6.3459Z" fill="#F2F2F2"/>
<path d="M62.3636 31.4066C65.877 31.4066 68.7251 28.5654 68.7251 25.0607C65.2117 25.0607 62.3636 27.9018 62.3636 31.4066Z" fill="#03C944"/>
<path d="M56.0021 25.0607C56.0021 21.5561 58.8502 18.7148 62.3636 18.7148C65.877 18.7148 68.7251 21.5561 68.7251 25.0607C65.2125 25.0607 62.3649 22.2209 62.3636 18.7171C62.3624 22.2209 59.5147 25.0607 56.0021 25.0607Z" fill="#03C944"/>
<path d="M56.0021 25.0607C56.0021 28.5654 58.8502 31.4066 62.3636 31.4066C62.3636 27.9018 59.5155 25.0607 56.0021 25.0607Z" fill="#03C944"/>
<path d="M62.3636 12.6918C65.877 12.6918 68.7251 9.85057 68.7251 6.3459C65.2117 6.3459 62.3636 9.18691 62.3636 12.6918Z" fill="#F2F2F2"/>
<path d="M56.0021 6.3459C56.0021 2.84123 58.8502 0 62.3636 0C65.877 0 68.7251 2.84123 68.7251 6.3459C65.2125 6.3459 62.3649 3.50602 62.3636 0.00225352C62.3624 3.50602 59.5147 6.3459 56.0021 6.3459Z" fill="#F2F2F2"/>
<path d="M56.0021 6.3459C56.0021 9.85057 58.8502 12.6918 62.3636 12.6918C62.3636 9.18691 59.5155 6.3459 56.0021 6.3459Z" fill="#F2F2F2"/>
<path d="M81.0629 31.4066C84.5762 31.4066 87.4243 28.5654 87.4243 25.0607C83.911 25.0607 81.0629 27.9018 81.0629 31.4066Z" fill="#03C944"/>
<path d="M74.7014 25.0607C74.7014 21.5561 77.5495 18.7148 81.0629 18.7148C84.5762 18.7148 87.4243 21.5561 87.4243 25.0607C83.9117 25.0607 81.0641 22.2209 81.0629 18.7171C81.0616 22.2209 78.214 25.0607 74.7014 25.0607Z" fill="#03C944"/>
<path d="M74.7014 25.0607C74.7014 28.5654 77.5495 31.4066 81.0629 31.4066C81.0629 27.9018 78.2147 25.0607 74.7014 25.0607Z" fill="#03C944"/>
<path d="M99.639 31.4066C103.152 31.4066 106.001 28.5654 106.001 25.0607C102.487 25.0607 99.639 27.9018 99.639 31.4066Z" fill="#F2F2F2"/>
<path d="M93.2775 25.0607C93.2775 21.5561 96.1256 18.7148 99.639 18.7148C103.152 18.7148 106.001 21.5561 106.001 25.0607C102.488 25.0607 99.6403 22.2209 99.639 18.7171C99.6378 22.2209 96.7901 25.0607 93.2775 25.0607Z" fill="#F2F2F2"/>
<path d="M93.2775 25.0607C93.2775 28.5654 96.1256 31.4066 99.639 31.4066C99.639 27.9018 96.7909 25.0607 93.2775 25.0607Z" fill="#F2F2F2"/>
<path d="M81.0629 12.6918C84.5762 12.6918 87.4243 9.85057 87.4243 6.3459C83.911 6.3459 81.0629 9.18691 81.0629 12.6918Z" fill="#F2F2F2"/>
<path d="M74.7014 6.3459C74.7014 2.84123 77.5495 0 81.0629 0C84.5762 0 87.4243 2.84123 87.4243 6.3459C83.9117 6.3459 81.0641 3.50602 81.0629 0.00225352C81.0616 3.50602 78.214 6.3459 74.7014 6.3459Z" fill="#F2F2F2"/>
<path d="M74.7014 6.3459C74.7014 9.85057 77.5495 12.6918 81.0629 12.6918C81.0629 9.18691 78.2147 6.3459 74.7014 6.3459Z" fill="#F2F2F2"/>
<path d="M99.639 12.6918C103.152 12.6918 106.001 9.85057 106.001 6.3459C102.487 6.3459 99.639 9.18691 99.639 12.6918Z" fill="#F2F2F2"/>
<path d="M93.2775 6.3459C93.2775 2.84123 96.1256 0 99.639 0C103.152 0 106.001 2.84123 106.001 6.3459C102.488 6.3459 99.6403 3.50602 99.639 0.00225352C99.6378 3.50602 96.7901 6.3459 93.2775 6.3459Z" fill="#F2F2F2"/>
<path d="M93.2775 6.3459C93.2775 9.85057 96.1256 12.6918 99.639 12.6918C99.639 9.18691 96.7909 6.3459 93.2775 6.3459Z" fill="#F2F2F2"/>
<path d="M43.651 50.0648C47.1644 50.0648 50.0125 47.2236 50.0125 43.7189C46.4991 43.7189 43.651 46.56 43.651 50.0648Z" fill="#F2F2F2"/>
<path d="M37.2895 43.7189C37.2895 40.2143 40.1376 37.373 43.651 37.373C47.1644 37.373 50.0125 40.2143 50.0125 43.7189C46.4999 43.7189 43.6522 40.8791 43.651 37.3753C43.6497 40.8791 40.8021 43.7189 37.2895 43.7189Z" fill="#F2F2F2"/>
<path d="M37.2895 43.7189C37.2895 47.2236 40.1376 50.0648 43.651 50.0648C43.651 46.56 40.8029 43.7189 37.2895 43.7189Z" fill="#F2F2F2"/>
<path d="M62.3636 50.0648C65.877 50.0648 68.7251 47.2236 68.7251 43.7189C65.2117 43.7189 62.3636 46.56 62.3636 50.0648Z" fill="#03C944"/>
<path d="M56.0021 43.7189C56.0021 40.2143 58.8502 37.373 62.3636 37.373C65.877 37.373 68.7251 40.2143 68.7251 43.7189C65.2125 43.7189 62.3649 40.8791 62.3636 37.3753C62.3624 40.8791 59.5147 43.7189 56.0021 43.7189Z" fill="#03C944"/>
<path d="M56.0021 43.7189C56.0021 47.2236 58.8502 50.0648 62.3636 50.0648C62.3636 46.56 59.5155 43.7189 56.0021 43.7189Z" fill="#03C944"/>
<path d="M81.0629 50.0648C84.5762 50.0648 87.4243 47.2236 87.4243 43.7189C83.911 43.7189 81.0629 46.56 81.0629 50.0648Z" fill="#03C944"/>
<path d="M74.7014 43.7189C74.7014 40.2143 77.5495 37.373 81.0629 37.373C84.5762 37.373 87.4243 40.2143 87.4243 43.7189C83.9117 43.7189 81.0641 40.8791 81.0629 37.3753C81.0616 40.8791 78.214 43.7189 74.7014 43.7189Z" fill="#03C944"/>
<path d="M74.7014 43.7189C74.7014 47.2236 77.5495 50.0648 81.0629 50.0648C81.0629 46.56 78.2147 43.7189 74.7014 43.7189Z" fill="#03C944"/>
<path d="M99.639 50.0648C103.152 50.0648 106.001 47.2236 106.001 43.7189C102.487 43.7189 99.639 46.56 99.639 50.0648Z" fill="#F2F2F2"/>
<path d="M93.2775 43.7189C93.2775 40.2143 96.1256 37.373 99.639 37.373C103.152 37.373 106.001 40.2143 106.001 43.7189C102.488 43.7189 99.6403 40.8791 99.639 37.3753C99.6378 40.8791 96.7901 43.7189 93.2775 43.7189Z" fill="#F2F2F2"/>
<path d="M93.2775 43.7189C93.2775 47.2236 96.1256 50.0648 99.639 50.0648C99.639 46.56 96.7909 43.7189 93.2775 43.7189Z" fill="#F2F2F2"/>
<path d="M43.6507 68.7231C47.1641 68.7231 50.0122 65.8818 50.0122 62.3772C46.4988 62.3772 43.6507 65.2182 43.6507 68.7231Z" fill="#03C944"/>
<path d="M37.2892 62.3772C37.2892 58.8725 40.1373 56.0312 43.6507 56.0312C47.1641 56.0312 50.0122 58.8725 50.0122 62.3772C46.4996 62.3772 43.652 59.5373 43.6507 56.0335C43.6495 59.5373 40.8018 62.3772 37.2892 62.3772Z" fill="#03C944"/>
<path d="M37.2892 62.3772C37.2892 65.8818 40.1373 68.7231 43.6507 68.7231C43.6507 65.2182 40.8026 62.3772 37.2892 62.3772Z" fill="#03C944"/>
<path d="M24.9945 68.7231C28.5079 68.7231 31.356 65.8818 31.356 62.3772C27.8426 62.3772 24.9945 65.2182 24.9945 68.7231Z" fill="#F2F2F2"/>
<path d="M18.633 62.3772C18.633 58.8725 21.4811 56.0312 24.9945 56.0312C28.5079 56.0312 31.356 58.8725 31.356 62.3772C27.8434 62.3772 24.9957 59.5373 24.9945 56.0335C24.9932 59.5373 22.1456 62.3772 18.633 62.3772Z" fill="#F2F2F2"/>
<path d="M18.633 62.3772C18.633 65.8818 21.4811 68.7231 24.9945 68.7231C24.9945 65.2182 22.1464 62.3772 18.633 62.3772Z" fill="#F2F2F2"/>
<path d="M6.4027 68.7231C9.91609 68.7231 12.7642 65.8818 12.7642 62.3772C9.2508 62.3772 6.4027 65.2182 6.4027 68.7231Z" fill="#F2F2F2"/>
<path d="M0.0411987 62.3772C0.0411987 58.8725 2.8893 56.0312 6.4027 56.0312C9.91609 56.0312 12.7642 58.8725 12.7642 62.3772C9.25159 62.3772 6.40394 59.5373 6.4027 56.0335C6.40145 59.5373 3.5538 62.3772 0.0411987 62.3772Z" fill="#F2F2F2"/>
<path d="M0.0411987 62.3772C0.0411987 65.8818 2.8893 68.7231 6.4027 68.7231C6.4027 65.2182 3.55459 62.3772 0.0411987 62.3772Z" fill="#F2F2F2"/>
<path d="M24.9944 50.0746C28.5078 50.0746 31.3559 47.2334 31.3559 43.7287C27.8425 43.7287 24.9944 46.5697 24.9944 50.0746Z" fill="#F2F2F2"/>
<path d="M18.6329 43.7287C18.6329 40.224 21.481 37.3828 24.9944 37.3828C28.5078 37.3828 31.3559 40.224 31.3559 43.7287C27.8433 43.7287 24.9956 40.8888 24.9944 37.3851C24.9931 40.8888 22.1455 43.7287 18.6329 43.7287Z" fill="#F2F2F2"/>
<path d="M18.6329 43.7287C18.6329 47.2334 21.481 50.0746 24.9944 50.0746C24.9944 46.5697 22.1463 43.7287 18.6329 43.7287Z" fill="#F2F2F2"/>
<path d="M6.4027 50.0746C9.91609 50.0746 12.7642 47.2334 12.7642 43.7287C9.2508 43.7287 6.4027 46.5697 6.4027 50.0746Z" fill="#F2F2F2"/>
<path d="M0.0411987 43.7287C0.0411987 40.224 2.8893 37.3828 6.4027 37.3828C9.91609 37.3828 12.7642 40.224 12.7642 43.7287C9.25159 43.7287 6.40394 40.8888 6.4027 37.3851C6.40145 40.8888 3.5538 43.7287 0.0411987 43.7287Z" fill="#F2F2F2"/>
<path d="M0.0411987 43.7287C0.0411987 47.2334 2.8893 50.0746 6.4027 50.0746C6.4027 46.5697 3.55459 43.7287 0.0411987 43.7287Z" fill="#F2F2F2"/>
<path d="M62.3636 68.7231C65.877 68.7231 68.7251 65.8818 68.7251 62.3772C65.2117 62.3772 62.3636 65.2182 62.3636 68.7231Z" fill="#F2F2F2"/>
<path d="M56.0021 62.3772C56.0021 58.8725 58.8502 56.0312 62.3636 56.0312C65.877 56.0312 68.7251 58.8725 68.7251 62.3772C65.2125 62.3772 62.3649 59.5373 62.3636 56.0335C62.3624 59.5373 59.5147 62.3772 56.0021 62.3772Z" fill="#F2F2F2"/>
<path d="M56.0021 62.3772C56.0021 65.8818 58.8502 68.7231 62.3636 68.7231C62.3636 65.2182 59.5155 62.3772 56.0021 62.3772Z" fill="#F2F2F2"/>
<path d="M81.0629 68.7231C84.5762 68.7231 87.4243 65.8818 87.4243 62.3772C83.911 62.3772 81.0629 65.2182 81.0629 68.7231Z" fill="#03C944"/>
<path d="M74.7014 62.3772C74.7014 58.8725 77.5495 56.0312 81.0629 56.0312C84.5762 56.0312 87.4243 58.8725 87.4243 62.3772C83.9117 62.3772 81.0641 59.5373 81.0629 56.0335C81.0616 59.5373 78.214 62.3772 74.7014 62.3772Z" fill="#03C944"/>
<path d="M74.7014 62.3772C74.7014 65.8818 77.5495 68.7231 81.0629 68.7231C81.0629 65.2182 78.2147 62.3772 74.7014 62.3772Z" fill="#03C944"/>
<path d="M99.639 68.7231C103.152 68.7231 106.001 65.8818 106.001 62.3772C102.487 62.3772 99.639 65.2182 99.639 68.7231Z" fill="#F2F2F2"/>
<path d="M93.2775 62.3772C93.2775 58.8725 96.1256 56.0312 99.639 56.0312C103.152 56.0312 106.001 58.8725 106.001 62.3772C102.488 62.3772 99.6403 59.5373 99.639 56.0335C99.6378 59.5373 96.7901 62.3772 93.2775 62.3772Z" fill="#F2F2F2"/>
<path d="M93.2775 62.3772C93.2775 65.8818 96.1256 68.7231 99.639 68.7231C99.639 65.2182 96.7909 62.3772 93.2775 62.3772Z" fill="#F2F2F2"/>
<path d="M24.9535 87.3832C28.4669 87.3832 31.315 84.542 31.315 81.0373C27.8016 81.0373 24.9535 83.8783 24.9535 87.3832Z" fill="#03C944"/>
<path d="M18.592 81.0373C18.592 77.5326 21.4401 74.6914 24.9535 74.6914C28.4669 74.6914 31.315 77.5326 31.315 81.0373C27.8024 81.0373 24.9547 78.1974 24.9535 74.6937C24.9522 78.1974 22.1046 81.0373 18.592 81.0373Z" fill="#03C944"/>
<path d="M18.592 81.0373C18.592 84.542 21.4401 87.3832 24.9535 87.3832C24.9535 83.8783 22.1054 81.0373 18.592 81.0373Z" fill="#03C944"/>
<path d="M24.9535 105.996C28.4669 105.996 31.315 103.155 31.315 99.6506C27.8016 99.6506 24.9535 102.492 24.9535 105.996Z" fill="#F2F2F2"/>
<path d="M18.592 99.6506C18.592 96.1459 21.4401 93.3047 24.9535 93.3047C28.4669 93.3047 31.315 96.1459 31.315 99.6506C27.8024 99.6506 24.9547 96.8107 24.9535 93.3069C24.9522 96.8107 22.1046 99.6506 18.592 99.6506Z" fill="#F2F2F2"/>
<path d="M18.592 99.6506C18.592 103.155 21.4401 105.996 24.9535 105.996C24.9535 102.492 22.1054 99.6506 18.592 99.6506Z" fill="#F2F2F2"/>
<path d="M6.36168 87.3832C9.87507 87.3832 12.7232 84.542 12.7232 81.0373C9.20978 81.0373 6.36168 83.8783 6.36168 87.3832Z" fill="#F2F2F2"/>
<path d="M0.000183105 81.0373C0.000183105 77.5326 2.84829 74.6914 6.36168 74.6914C9.87507 74.6914 12.7232 77.5326 12.7232 81.0373C9.21057 81.0373 6.36292 78.1974 6.36168 74.6937C6.36044 78.1974 3.51279 81.0373 0.000183105 81.0373Z" fill="#F2F2F2"/>
<path d="M0.000183105 81.0373C0.000183105 84.542 2.84829 87.3832 6.36168 87.3832C6.36168 83.8783 3.51358 81.0373 0.000183105 81.0373Z" fill="#F2F2F2"/>
<path d="M6.36168 105.996C9.87507 105.996 12.7232 103.155 12.7232 99.6506C9.20978 99.6506 6.36168 102.492 6.36168 105.996Z" fill="#F2F2F2"/>
<path d="M0.000183105 99.6506C0.000183105 96.1459 2.84829 93.3047 6.36168 93.3047C9.87507 93.3047 12.7232 96.1459 12.7232 99.6506C9.21057 99.6506 6.36292 96.8107 6.36168 93.3069C6.36044 96.8107 3.51279 99.6506 0.000183105 99.6506Z" fill="#F2F2F2"/>
<path d="M0.000183105 99.6506C0.000183105 103.155 2.84829 105.996 6.36168 105.996C6.36168 102.492 3.51358 99.6506 0.000183105 99.6506Z" fill="#F2F2F2"/>
<path d="M43.4398 87.3832C46.9532 87.3832 49.8013 84.542 49.8013 81.0373C46.2879 81.0373 43.4398 83.8783 43.4398 87.3832Z" fill="#F2F2F2"/>
<path d="M37.0783 81.0373C37.0783 77.5326 39.9264 74.6914 43.4398 74.6914C46.9532 74.6914 49.8013 77.5326 49.8013 81.0373C46.2887 81.0373 43.441 78.1974 43.4398 74.6937C43.4386 78.1974 40.5909 81.0373 37.0783 81.0373Z" fill="#F2F2F2"/>
<path d="M37.0783 81.0373C37.0783 84.542 39.9264 87.3832 43.4398 87.3832C43.4398 83.8783 40.5917 81.0373 37.0783 81.0373Z" fill="#F2F2F2"/>
<path d="M43.44 105.996C46.9534 105.996 49.8015 103.155 49.8015 99.6506C46.2881 99.6506 43.44 102.492 43.44 105.996Z" fill="#F2F2F2"/>
<path d="M37.0785 99.6506C37.0785 96.1459 39.9266 93.3047 43.44 93.3047C46.9534 93.3047 49.8015 96.1459 49.8015 99.6506C46.2889 99.6506 43.4412 96.8107 43.44 93.3069C43.4387 96.8107 40.5911 99.6506 37.0785 99.6506Z" fill="#F2F2F2"/>
<path d="M37.0785 99.6506C37.0785 103.155 39.9266 105.996 43.44 105.996C43.44 102.492 40.5919 99.6506 37.0785 99.6506Z" fill="#F2F2F2"/>
<path d="M62.3832 87.3832C65.8966 87.3832 68.7447 84.542 68.7447 81.0373C65.2313 81.0373 62.3832 83.8783 62.3832 87.3832Z" fill="#F2F2F2"/>
<path d="M56.0217 81.0373C56.0217 77.5326 58.8698 74.6914 62.3832 74.6914C65.8966 74.6914 68.7447 77.5326 68.7447 81.0373C65.2321 81.0373 62.3844 78.1974 62.3832 74.6937C62.3819 78.1974 59.5343 81.0373 56.0217 81.0373Z" fill="#F2F2F2"/>
<path d="M56.0217 81.0373C56.0217 84.542 58.8698 87.3832 62.3832 87.3832C62.3832 83.8783 59.5351 81.0373 56.0217 81.0373Z" fill="#F2F2F2"/>
<path d="M62.3832 105.996C65.8966 105.996 68.7447 103.155 68.7447 99.6506C65.2313 99.6506 62.3832 102.492 62.3832 105.996Z" fill="#F2F2F2"/>
<path d="M56.0217 99.6506C56.0217 96.1459 58.8698 93.3047 62.3832 93.3047C65.8966 93.3047 68.7447 96.1459 68.7447 99.6506C65.2321 99.6506 62.3845 96.8107 62.3832 93.3069C62.382 96.8107 59.5343 99.6506 56.0217 99.6506Z" fill="#F2F2F2"/>
<path d="M56.0217 99.6506C56.0217 103.155 58.8698 105.996 62.3832 105.996C62.3832 102.492 59.5351 99.6506 56.0217 99.6506Z" fill="#F2F2F2"/>
<path d="M81.0629 87.3832C84.5762 87.3832 87.4243 84.542 87.4243 81.0373C83.911 81.0373 81.0629 83.8783 81.0629 87.3832Z" fill="#03C944"/>
<path d="M74.7014 81.0373C74.7014 77.5326 77.5495 74.6914 81.0629 74.6914C84.5762 74.6914 87.4243 77.5326 87.4243 81.0373C83.9117 81.0373 81.0641 78.1974 81.0629 74.6937C81.0616 78.1974 78.214 81.0373 74.7014 81.0373Z" fill="#03C944"/>
<path d="M74.7014 81.0373C74.7014 84.542 77.5495 87.3832 81.0629 87.3832C81.0629 83.8783 78.2147 81.0373 74.7014 81.0373Z" fill="#03C944"/>
<path d="M81.0629 105.996C84.5762 105.996 87.4243 103.155 87.4243 99.6506C83.911 99.6506 81.0629 102.492 81.0629 105.996Z" fill="#F2F2F2"/>
<path d="M74.7014 99.6506C74.7014 96.1459 77.5495 93.3047 81.0629 93.3047C84.5762 93.3047 87.4243 96.1459 87.4243 99.6506C83.9117 99.6506 81.0641 96.8107 81.0629 93.3069C81.0616 96.8107 78.214 99.6506 74.7014 99.6506Z" fill="#F2F2F2"/>
<path d="M74.7014 99.6506C74.7014 103.155 77.5495 105.996 81.0629 105.996C81.0629 102.492 78.2147 99.6506 74.7014 99.6506Z" fill="#F2F2F2"/>
<path d="M99.639 87.3832C103.152 87.3832 106.001 84.542 106.001 81.0373C102.487 81.0373 99.639 83.8783 99.639 87.3832Z" fill="#F2F2F2"/>
<path d="M93.2775 81.0373C93.2775 77.5326 96.1256 74.6914 99.639 74.6914C103.152 74.6914 106.001 77.5326 106.001 81.0373C102.488 81.0373 99.6403 78.1974 99.639 74.6937C99.6378 78.1974 96.7901 81.0373 93.2775 81.0373Z" fill="#F2F2F2"/>
<path d="M93.2775 81.0373C93.2775 84.542 96.1256 87.3832 99.639 87.3832C99.639 83.8783 96.7909 81.0373 93.2775 81.0373Z" fill="#F2F2F2"/>
<path d="M99.639 105.996C103.152 105.996 106.001 103.155 106.001 99.6506C102.487 99.6506 99.639 102.492 99.639 105.996Z" fill="#F2F2F2"/>
<path d="M93.2775 99.6506C93.2775 96.1459 96.1256 93.3047 99.639 93.3047C103.152 93.3047 106.001 96.1459 106.001 99.6506C102.488 99.6506 99.6403 96.8107 99.639 93.3069C99.6378 96.8107 96.7901 99.6506 93.2775 99.6506Z" fill="#F2F2F2"/>
<path d="M93.2775 99.6506C93.2775 103.155 96.1256 105.996 99.639 105.996C99.639 102.492 96.7909 99.6506 93.2775 99.6506Z" fill="#F2F2F2"/>
</svg>
