<svg width="35" height="24" viewBox="0 0 35 24" fill="none" xmlns="http://www.w3.org/2000/svg">
<circle cx="16.8863" cy="12.1852" r="8.4" fill="white"/>
<path d="M17.0762 0C20.0351 9.79289e-06 23.7383 0.10882 26.918 0.228516C30.2335 0.353327 31.892 0.415622 32.9736 1.50488C34.0552 2.59448 34.1053 4.24271 34.2051 7.53809C34.2518 9.07976 34.2859 10.6533 34.2861 12C34.2864 13.3529 34.2526 14.9335 34.2061 16.4824C34.1064 19.7972 34.0568 21.4548 32.9688 22.5459C31.8806 23.637 30.2104 23.692 26.8701 23.8018C23.7011 23.9059 20.02 24 17.0762 24C14.175 24 10.5575 23.9089 7.41992 23.8066C4.02432 23.6959 2.32657 23.6397 1.23535 22.5332C0.144208 21.4268 0.11234 19.7314 0.0488281 16.3408C0.0198286 14.7926 -0.000806955 13.2165 0 11.8652C0.000759209 10.599 0.0203203 9.12994 0.0478516 7.67773C0.111745 4.30763 0.14391 2.62249 1.22852 1.51758C2.31328 0.412669 3.9986 0.349585 7.36914 0.223633C10.5183 0.105954 14.1591 0 17.0762 0ZM12.2119 17.3779L23.1143 11.6299L12.1445 5.94922L12.2119 17.3779Z" fill="#FF0000"/>
</svg>
